<?xml version="1.0" encoding="utf-8"?>
<!-- Generator: Adobe Illustrator 24.3.0, SVG Export Plug-In . SVG Version: 6.00 Build 0)  -->
<svg version="1.1" xmlns="http://www.w3.org/2000/svg" xmlns:xlink="http://www.w3.org/1999/xlink" x="0px" y="0px"
	 viewBox="0 0 100 104.4" style="enable-background:new 0 0 100 104.4;" xml:space="preserve">
<style type="text/css">
	.st0{font-family:'BasimMarahBeh-Light';}
	.st1{font-size:137.4029px;}
	.st2{fill:#00A79D;}
	.st3{font-size:128.5417px;}
	.st4{fill:#2E3192;}
</style>
<g id="Layer_1">
	<text transform="matrix(1.1101 0 0 1 17.9819 73.594)" class="st0 st1">ع</text>
	<text transform="matrix(1.1212 0 0 1 24.8037 68.7873)" class="st2 st0 st3">ع</text>
	<g>
		<g>
			<path class="st2" d="M76.28,47.67c-5.22,0.2-10.13,1.84-15.13,3.15c-4.27,1.12-11.08,1.06-12.22,6.51
				c-0.28,1.32,0.39,2.7,1.75,3.08c1.24,0.34,2.8-0.42,3.08-1.75c0.32-1.54,2.34-1.7,3.63-1.93c2.17-0.38,4.3-0.87,6.43-1.45
				c4.1-1.13,8.2-2.45,12.48-2.61C79.49,52.55,79.5,47.55,76.28,47.67L76.28,47.67z"/>
		</g>
	</g>
	<g>
		<g>
			<path class="st2" d="M47.59,51.73c0.13,1.03,0.13,2.06,0,3.09c0.03-0.22,0.06-0.44,0.09-0.66c-0.08,0.57-0.22,1.13-0.33,1.69
				c-0.23,1.24-0.02,2.38,0.84,3.34c0.45,0.51,1.07,0.91,1.62,1.29c0.46,0.31,0.94,0.6,1.43,0.84c2.23,1.11,4.71,1.71,7.21,1.59
				c1.3-0.06,2.56-1.1,2.5-2.5c-0.06-1.3-1.1-2.57-2.5-2.5c-0.72,0.04-1.44,0.01-2.16-0.08c0.22,0.03,0.44,0.06,0.66,0.09
				c-0.57-0.08-1.14-0.19-1.7-0.35c-0.28-0.08-0.55-0.17-0.83-0.27c-0.13-0.05-0.27-0.13-0.41-0.16c0.37,0.16,0.44,0.19,0.2,0.08
				c-0.07-0.03-0.13-0.06-0.2-0.09c-0.52-0.25-1.03-0.53-1.51-0.85c-0.12-0.08-0.24-0.16-0.36-0.25c-0.45-0.32,0.23,0.2,0.04,0.04
				c-0.11-0.09-0.21-0.2-0.33-0.28c-0.14-0.13-0.08-0.05,0.16,0.24c0.13,0.39,0.17,0.46,0.12,0.21c0.03,0.22,0.06,0.44,0.09,0.66
				c-0.01-0.14,0-0.27,0.02-0.41c-0.03,0.22-0.06,0.44-0.09,0.66c0.35-1.83,0.65-3.58,0.42-5.44c-0.08-0.69-0.22-1.26-0.73-1.77
				c-0.43-0.43-1.15-0.76-1.77-0.73c-0.65,0.03-1.32,0.24-1.77,0.73C47.91,50.42,47.51,51.09,47.59,51.73L47.59,51.73z"/>
		</g>
	</g>
	<g>
		<g>
			<path class="st4" d="M76.47,47.89c-4.69,0.17-9.39-0.35-14.03,0.54c-2.02,0.39-4.04,1.09-5.81,2.15
				c-0.91,0.55-1.84,1.17-2.48,2.04c-0.47,0.64-0.7,1.31-0.78,2.09c-0.04,0.41,0,1.03-0.09,1.31c-0.95,3.08,3.87,4.4,4.82,1.33
				c0.16-0.53,0.21-1.08,0.23-1.64c-0.01-0.22-0.01-0.45,0-0.67c-0.37,0.67-0.38,0.81-0.03,0.42c0.59-0.21,1.16-0.75,1.74-1.04
				c1.41-0.7,3.02-1.09,4.58-1.31c3.91-0.56,7.92-0.07,11.86-0.22c1.35-0.05,2.5-1.11,2.5-2.5C78.97,49.08,77.83,47.84,76.47,47.89
				L76.47,47.89z"/>
		</g>
	</g>
	<g>
		<g>
			<path class="st4" d="M57.07,50.9c-0.03-0.13-0.13-1.01-0.09-0.4c-0.01-0.21-0.03-0.43-0.03-0.64c0-0.22,0-0.43,0.02-0.64
				c0.01-0.14,0.02-0.29,0.04-0.43c-0.04,0.31-0.04,0.31,0,0.02c0.2-0.94,0.46-1.84,0.81-2.75c0.26-0.68-0.21,0.44,0.09-0.22
				c0.11-0.24,0.21-0.47,0.33-0.71c0.2-0.42,0.41-0.84,0.63-1.25c0.23-0.43,0.48-0.84,0.75-1.25c0.36-0.54-0.33,0.32,0.12-0.15
				c0.16-0.17,0.34-0.33,0.5-0.5c0.14-0.12,0.1-0.09-0.12,0.08c0.11-0.08,0.22-0.15,0.33-0.22c0.06-0.03,0.11-0.07,0.17-0.1
				c0.25-0.12,0.23-0.12-0.06,0.01c0.06-0.05,0.46-0.19,0.56-0.16c-0.35,0.04-0.37,0.05-0.09,0.03c0.3,0.01,0.26,0-0.12-0.04
				c0.06,0.01,0.11,0.03,0.17,0.04c0.26,0.09,0.23,0.06-0.1-0.07c0.11,0.05,0.21,0.11,0.31,0.17c-0.07-0.06-0.15-0.12-0.22-0.18
				c0.09,0.08,0.17,0.16,0.25,0.24c-0.21-0.28-0.24-0.31-0.09-0.09c-0.04-0.09-0.07-0.19-0.11-0.28c0.07,0.26,0.07,0.22,0.02-0.11
				c0.04,0.55,0.14-0.28,0,0.22c-0.08,0.29-0.15,0.58-0.25,0.86c-0.14,0.43-0.29,0.85-0.45,1.26c-0.05,0.14-0.11,0.28-0.16,0.42
				c-0.1,0.24-0.11,0.28-0.05,0.11c0.07-0.16,0.05-0.12-0.05,0.11c-0.06,0.14-0.12,0.27-0.19,0.41c-0.22,0.47-0.46,0.94-0.7,1.4
				c-0.62,1.15-0.33,2.77,0.9,3.42c1.16,0.61,2.76,0.33,3.42-0.9c0.54-1.01,1.01-2.06,1.45-3.12c0.36-0.89,0.74-1.81,0.92-2.76
				c0.26-1.32,0.18-2.72-0.63-3.85c-0.73-1.02-1.79-1.83-3.03-2.11c-5.08-1.15-7.86,4.15-9.38,8.05c-0.92,2.36-1.28,4.91-0.7,7.4
				c0.29,1.28,1.83,2.15,3.08,1.75C56.66,53.54,57.39,52.26,57.07,50.9L57.07,50.9z"/>
		</g>
	</g>
	<g>
		<g>
			<path class="st4" d="M65.1,61.11c-18.14,1.91-36.26,3.95-54.37,6.11c-1.34,0.16-2.5,1.03-2.5,2.5c0,1.23,1.15,2.66,2.5,2.5
				c18.11-2.16,36.24-4.2,54.37-6.11c1.34-0.14,2.5-1.05,2.5-2.5C67.6,62.37,66.45,60.97,65.1,61.11L65.1,61.11z"/>
		</g>
	</g>
</g>
<g id="Layer_2">
</g>
</svg>
